# xmcd
#
# Track frame offsets:
#	150
#	14430
#	29212
#	43055
#	61109
#	77187
#	92833
#	110244
#	124783
#	140761
#	154644
#	169393
#	185072
#
# Disc length: 2744 seconds
#
# Revision: 2
# Processed by: cddbd v1.5.2PL0 Copyright (c) Steve Scherf et al.
# Submitted via: EZCDAudioConverter 3.1.7.1
#
DISCID=bf0ab60d
DTITLE=Various Artist - Mud Digger V 5
DYEAR=2014
DGENRE=Country
TTITLE0=Colt Ford - Truck Step
TTITLE1=Cap Bailey - Dip-N-Brews
TTITLE2=Twang And Around - All Wired Up
TTITLE3=Bubba Sparxxx Feat. Colt Ford, Jj Lawhorn and I4ni - Country Folks [Remi
TTITLE3=x]
TTITLE4=The Lacs Feat. Luke Martin - Goin' Deep
TTITLE5=Sarah Ross - Shotgun
TTITLE6=Danny Boone Feat. Lenny Cooper - Big Foot
TTITLE7=Demun Jones - Wheelz Fall Off
TTITLE8=Moonshine Bandits Feat. Daniel Lee - Too Easy
TTITLE9=Locash Cowboys - Hillbillies with Guitars
TTITLE10=Redneck Souljers Feat. J Rosevelt - Country Boes
TTITLE11=Gunnar and The Grizzly Boys - Standard American
TTITLE12=The Lacs Feat. Cap Bailey - Smoke Stack [*][Remix]
EXTD=
EXTT0=
EXTT1=
EXTT2=
EXTT3=
EXTT4=
EXTT5=
EXTT6=
EXTT7=
EXTT8=
EXTT9=
EXTT10=
EXTT11=
EXTT12=
PLAYORDER=
